<svg width="1600" height="900" viewBox="0 0 1600 900" fill="none" xmlns="http://www.w3.org/2000/svg">
  <rect width="1600" height="900" fill="#0E1111"/>
  <rect x="160" y="140" width="1280" height="620" rx="24" fill="#111616" stroke="#2B3434"/>
  <rect x="240" y="220" width="320" height="460" rx="18" fill="#171C1C"/>
  <rect x="620" y="220" width="740" height="460" rx="18" fill="#0E1111" stroke="#2B3434"/>
  <rect x="290" y="280" width="180" height="46" rx="23" fill="#6FAF8F" fill-opacity="0.4"/>
  <rect x="290" y="350" width="140" height="14" rx="7" fill="#E6E8E8" fill-opacity="0.18"/>
  <rect x="290" y="392" width="180" height="14" rx="7" fill="#E6E8E8" fill-opacity="0.12"/>
  <rect x="290" y="434" width="120" height="14" rx="7" fill="#E6E8E8" fill-opacity="0.12"/>
  <rect x="700" y="300" width="220" height="44" rx="22" fill="#171C1C" stroke="#2B3434"/>
  <rect x="948" y="300" width="220" height="44" rx="22" fill="#171C1C" stroke="#2B3434"/>
  <rect x="1196" y="300" width="84" height="44" rx="22" fill="#6FAF8F" fill-opacity="0.45"/>
  <path d="M700 420H1260" stroke="#E6E8E8" stroke-opacity="0.12" stroke-width="18" stroke-linecap="round"/>
  <path d="M700 490H1120" stroke="#E6E8E8" stroke-opacity="0.12" stroke-width="18" stroke-linecap="round"/>
</svg>
